<svg viewBox="0 0 800 800" xmlns="http://www.w3.org/2000/svg"><path d="M230.957998426818,233.58204232829695 L13.587068197720953,357.5126837776603 M13.555023137270837,352.28493159287825 L13.587068197720953,357.5126837776603 M230.9440899938021,228.36481222002038 L13.555023137270837,352.28493159287825 M230.957998426818,233.58204232829695 L230.9440899938021,228.36481222002038 M544.7236886656983,664.6611845343103 L520.4630242490812,678.7663907467561 M544.7236886656983,664.6611845343103 L569.1151199773492,678.7663907467561 M569.1151199773492,678.7663907467561 L786.485951527915,552.2728532210386 M786.485951527915,552.2728532210386 L762.0954803903826,538.2807237854536 M786.140189582067,524.3010744385588 L762.0954803903826,538.2807237854536 M786.140189582067,524.3010744385588 L278.9222231415586,233.58204232829695 M254.876506541121,247.30341981027698 L278.9222231415586,233.58204232829695 M254.876506541121,247.30341981027698 L230.957998426818,233.58204232829695 M13.587068197720953,357.5126837776603 L37.504642417057994,371.34386539856337 M13.244979152146072,385.1873287802088 L37.504642417057994,371.34386539856337 M13.244979152146072,385.1873287802088 L520.4630242490812,678.7663907467561 M13.555023137270837,352.28493159287825 L37.47457350089894,366.1149439907552 M37.504642417057994,371.34386539856337 L37.47457350089894,366.1149439907552 M37.47457350089894,366.1149439907552 L13.212877153552313,379.95723813356005 M13.212877153552313,379.95723813356005 L520.4732458502342,673.5117448513154 M520.4732458502342,673.5117448513154 L544.7359435996518,659.4077078922629 M544.7359435996518,659.4077078922629 L569.1294302189635,673.5117448513154 M569.1294302189635,673.5117448513154 L786.5183983640234,547.0287309681505 M786.5183983640234,547.0287309681505 L762.1258721603192,533.0377708551083 M762.1258721603192,533.0377708551083 L786.1725785605463,519.0592908313679 M786.1725785605463,519.0592908313679 L278.9122885465473,228.36481222002038 M278.9122885465473,228.36481222002038 L254.86457448511277,242.0850206809117 M254.86457448511277,242.0850206809117 L230.9440899938021,228.36481222002038 M254.876506541121,247.30341981027698 L254.86457448511277,242.0850206809117 M544.7359435996518,659.4077078922629 L544.7236886656983,664.6611845343103 M520.4630242490812,678.7663907467561 L520.4732458502342,673.5117448513154 M13.244979152146072,385.1873287802088 L13.212877153552313,379.95723813356005 M278.9222231415586,233.58204232829695 L278.9122885465473,228.36481222002038 M786.1725785605463,519.0592908313679 L786.140189582067,524.3010744385588 M762.0954803903826,538.2807237854536 L762.1258721603192,533.0377708551083 M786.485951527915,552.2728532210386 L786.5183983640234,547.0287309681505 M569.1151199773492,678.7663907467561 L569.1294302189635,673.5117448513154" stroke="black"  stroke-width="4"  fill="red"/>
<path d="M255.17416646831134,294.541512381821 L243.16828222094733,301.40297350354075 M243.16828222094733,301.40297350354075 L243.05229741058497,254.53342153057008 M255.0671508055048,247.6771941504835 L243.05229741058497,254.53342153057008 M255.0671508055048,247.6771941504835 L255.17416646831134,294.541512381821 M243.16828222094733,301.40297350354075 L267.0585272759609,315.13498176921166 M267.0585272759609,315.13498176921166 L279.0644383378526,308.26746263105116 M279.0644383378526,308.26746263105116 L255.17416646831134,294.541512381821 M267.0585272759609,315.13498176921166 L266.9602995915619,268.2549621501682 M266.9602995915619,268.2549621501682 L243.05229741058497,254.53342153057008 M266.9602995915619,268.2549621501682 L278.9751798609986,261.3926768616924 M278.9751798609986,261.3926768616924 L255.0671508055048,247.6771941504835 M279.0644383378526,308.26746263105116 L278.9751798609986,261.3926768616924" stroke="black"  stroke-width="4"  fill="red"/>
<path d="M242.98348407577134,226.72589947311312 L255.0036588475162,219.8727845316359 M242.98348407577134,226.72589947311312 L242.5649982441163,57.6154497907371 M254.6175350450739,50.78137978029423 L242.5649982441163,57.6154497907371 M254.6175350450739,50.78137978029423 L255.0036588475162,219.8727845316359 M278.9222231415586,233.58204232829695 L266.90202145966333,240.44121510436705 M278.9222231415586,233.58204232829695 L255.0036588475162,219.8727845316359 M266.90202145966333,240.44121510436705 L242.98348407577134,226.72589947311312 M266.90202145966333,240.44121510436705 L266.5476045975699,71.29267465045325 M242.5649982441163,57.6154497907371 L266.5476045975699,71.29267465045325 M266.5476045975699,71.29267465045325 L278.60016852606066,64.4525474100003 M278.60016852606066,64.4525474100003 L254.6175350450739,50.78137978029423 M278.9222231415586,233.58204232829695 L278.60016852606066,64.4525474100003" stroke="black"  stroke-width="4"  fill="red"/>
<path d="M243.16828222094733,301.40297350354075 L231.15709970162956,308.26746263105116 M242.5649982441163,57.6154497907371 L243.16828222094733,301.40297350354075 M242.5649982441163,57.6154497907371 L230.5071219651208,64.4525474100003 M231.15709970162956,308.26746263105116 L230.5071219651208,64.4525474100003 M230.5071219651208,64.4525474100003 L254.4896988124903,78.13583352624778 M255.04731559108387,322.00553292465145 L254.4896988124903,78.13583352624778 M231.15709970162956,308.26746263105116 L255.04731559108387,322.00553292465145 M255.04731559108387,322.00553292465145 L267.0585272759609,315.13498176921166 M254.4896988124903,78.13583352624778 L266.5476045975699,71.29267465045325 M267.0585272759609,315.13498176921166 L266.5476045975699,71.29267465045325 M267.0585272759609,315.13498176921166 L243.16828222094733,301.40297350354075 M266.5476045975699,71.29267465045325 L242.5649982441163,57.6154497907371" stroke="black"  stroke-width="4"  fill="red"/>
<path d="M544.5482605655668,739.8641542038237 L532.4351929443533,746.9235245118517 M545.1209772019847,494.3505118314688 L544.5482605655668,739.8641542038237 M545.1209772019847,494.3505118314688 L532.9604186301399,501.3824813393212 M532.4351929443533,746.9235245118517 L532.9604186301399,501.3824813393212 M532.4351929443533,746.9235245118517 L556.7972332769507,761.0517471565284 M532.9604186301399,501.3824813393212 L557.4185115882442,515.4559027276628 M556.7972332769507,761.0517471565284 L557.4185115882442,515.4559027276628 M556.7972332769507,761.0517471565284 L568.9102704807315,753.9860547886838 M557.4185115882442,515.4559027276628 L569.5790393824652,508.4176109278422 M568.9102704807315,753.9860547886838 L569.5790393824652,508.4176109278422 M569.5790393824652,508.4176109278422 L545.1209772019847,494.3505118314688 M568.9102704807315,753.9860547886838 L544.5482605655668,739.8641542038237" stroke="black"  stroke-width="4"  fill="red"/>
<path d="M532.4351929443533,746.9235245118517 L520.3167031800683,753.9860547886838 M520.3167031800683,753.9860547886838 L520.4085380428171,706.7762608068308 M532.5361660728747,699.7189646807163 L520.4085380428171,706.7762608068308 M532.5361660728747,699.7189646807163 L532.4351929443533,746.9235245118517 M520.3167031800683,753.9860547886838 L544.6787715155331,768.1206037394954 M544.6787715155331,768.1206037394954 L556.7972332769507,761.0517471565284 M556.7972332769507,761.0517471565284 L532.4351929443533,746.9235245118517 M544.6787715155331,768.1206037394954 L544.7890721132153,720.9003415947889 M544.7890721132153,720.9003415947889 L520.4085380428171,706.7762608068308 M544.7890721132153,720.9003415947889 L556.9166720768446,713.8367190696063 M556.9166720768446,713.8367190696063 L532.5361660728747,699.7189646807163 M556.7972332769507,761.0517471565284 L556.9166720768446,713.8367190696063" stroke="black"  stroke-width="4"  fill="red"/>
<path d="M520.4630242490812,678.7663907467561 L532.5960740540088,671.7122076235948 M520.4630242490812,678.7663907467561 L520.7943952527353,508.4176109278422 M532.9604186301399,501.3824813393212 L520.7943952527353,508.4176109278422 M532.9604186301399,501.3824813393212 L532.5960740540088,671.7122076235948 M556.9875358931217,685.8237360286031 L544.8545141923789,692.8842455958503 M556.9875358931217,685.8237360286031 L532.5960740540088,671.7122076235948 M544.8545141923789,692.8842455958503 L520.4630242490812,678.7663907467561 M544.8545141923789,692.8842455958503 L545.2525165453801,522.4973588713295 M520.7943952527353,508.4176109278422 L545.2525165453801,522.4973588713295 M545.2525165453801,522.4973588713295 L557.4185115882442,515.4559027276628 M557.4185115882442,515.4559027276628 L532.9604186301399,501.3824813393212 M556.9875358931217,685.8237360286031 L557.4185115882442,515.4559027276628" stroke="black"  stroke-width="4"  fill="red"/>
<path d="M787.1901845024529,354.3714743168566 L786.140189582067,524.3010744385588 M774.1205163778657,531.2893401447257 L786.140189582067,524.3010744385588 M774.1205163778657,531.2893401447257 L775.1381533551271,361.34068671240414 M787.1901845024529,354.3714743168566 L775.1381533551271,361.34068671240414 M810.5305064519791,538.2807237854536 L786.140189582067,524.3010744385588 M811.6471231332166,368.31301697503386 L787.1901845024529,354.3714743168566 M810.5305064519791,538.2807237854536 L811.6471231332166,368.31301697503386 M810.5305064519791,538.2807237854536 L798.5109115609926,545.2752274478885 M798.5109115609926,545.2752274478885 L774.1205163778657,531.2893401447257 M798.5109115609926,545.2752274478885 L799.5951709379742,375.28846719750806 M775.1381533551271,361.34068671240414 L799.5951709379742,375.28846719750806 M799.5951709379742,375.28846719750806 L811.6471231332166,368.31301697503386" stroke="black"  stroke-width="4"  fill="red"/>
<path d="M785.9675398042702,552.2424550419248 L785.6765420764962,599.3370900319862 M785.6765420764962,599.3370900319862 L773.6711575993982,606.3337037193121 M773.6711575993982,606.3337037193121 L773.9531873071346,559.2338339929998 M785.9675398042702,552.2424550419248 L773.9531873071346,559.2338339929998 M810.037441555992,613.333435327176 L785.6765420764962,599.3370900319862 M810.3469023729206,566.2283308765445 L785.9675398042702,552.2424550419248 M810.037441555992,613.333435327176 L810.3469023729206,566.2283308765445 M773.6711575993982,606.3337037193121 L798.032135111104,620.3362869402138 M798.032135111104,620.3362869402138 L810.037441555992,613.333435327176 M798.032135111104,620.3362869402138 L798.3326280842823,573.2259477787721 M798.3326280842823,573.2259477787721 L773.9531873071346,559.2338339929998 M798.3326280842823,573.2259477787721 L810.3469023729206,566.2283308765445" stroke="black"  stroke-width="4"  fill="red"/>
<path d="M773.6711575993982,606.3337037193121 L761.6604231292179,613.333435327176 M775.1381533551271,361.34068671240414 L773.6711575993982,606.3337037193121 M775.1381533551271,361.34068671240414 L763.0807304032396,368.31301697503386 M761.6604231292179,613.333435327176 L763.0807304032396,368.31301697503386 M763.0807304032396,368.31301697503386 L787.5378245602567,382.26703947446254 M786.021476322727,627.3422606449204 L787.5378245602567,382.26703947446254 M761.6604231292179,613.333435327176 L786.021476322727,627.3422606449204 M786.021476322727,627.3422606449204 L798.032135111104,620.3362869402138 M787.5378245602567,382.26703947446254 L799.5951709379742,375.28846719750806 M798.032135111104,620.3362869402138 L799.5951709379742,375.28846719750806 M798.032135111104,620.3362869402138 L773.6711575993982,606.3337037193121 M799.5951709379742,375.28846719750806 L775.1381533551271,361.34068671240414" stroke="black"  stroke-width="4"  fill="red"/>
<path d="M14.045795651736796,432.34835006350244 L1.9332758945647015,439.27075425194414 M12.548237036737987,188.0403284388242 L14.045795651736796,432.34835006350244 M12.548237036737987,188.0403284388242 L0.38823276074361956,194.9353350189181 M1.9332758945647015,439.27075425194414 L0.38823276074361956,194.9353350189181 M1.9332758945647015,439.27075425194414 L25.822486786077434,453.1247699941856 M0.38823276074361956,194.9353350189181 L24.369792846500047,208.73455481969376 M25.822486786077434,453.1247699941856 L24.369792846500047,208.73455481969376 M25.822486786077434,453.1247699941856 L37.935080973352,446.19622688195864 M24.369792846500047,208.73455481969376 L36.529872425301335,201.83340979640008 M37.935080973352,446.19622688195864 L36.529872425301335,201.83340979640008 M36.529872425301335,201.83340979640008 L12.548237036737987,188.0403284388242 M37.935080973352,446.19622688195864 L14.045795651736796,432.34835006350244" stroke="black"  stroke-width="4"  fill="red"/>
<path d="M1.9332758945647015,439.27075425194414 L-10.18461288732243,446.19622688195864 M-10.18461288732243,446.19622688195864 L-10.490789097947186,399.2167559511504 M1.636236596842707,392.29651790290364 L-10.490789097947186,399.2167559511504 M1.636236596842707,392.29651790290364 L1.9332758945647015,439.27075425194414 M-10.18461288732243,446.19622688195864 L13.704521160138825,460.05638563107425 M13.704521160138825,460.05638563107425 L25.822486786077434,453.1247699941856 M25.822486786077434,453.1247699941856 L1.9332758945647015,439.27075425194414 M13.704521160138825,460.05638563107425 L13.416099582967888,413.06644546750675 M13.416099582967888,413.06644546750675 L-10.490789097947186,399.2167559511504 M13.416099582967888,413.06644546750675 L25.54320229452577,406.14006445803034 M25.54320229452577,406.14006445803034 L1.636236596842707,392.29651790290364 M25.822486786077434,453.1247699941856 L25.54320229452577,406.14006445803034" stroke="black"  stroke-width="4"  fill="red"/>
<path d="M-10.672443251122331,371.34386539856337 L1.4600034149202656,364.4267403897678 M-10.672443251122331,371.34386539856337 L-11.777182575113216,201.83340979640008 M0.38823276074361956,194.9353350189181 L-11.777182575113216,201.83340979640008 M0.38823276074361956,194.9353350189181 L1.4600034149202656,364.4267403897678 M25.377502937551355,378.26406084709095 L13.244979152146072,385.1873287802088 M25.377502937551355,378.26406084709095 L1.4600034149202656,364.4267403897678 M13.244979152146072,385.1873287802088 L-10.672443251122331,371.34386539856337 M13.244979152146072,385.1873287802088 L12.204299765382018,215.6387721390467 M-11.777182575113216,201.83340979640008 L12.204299765382018,215.6387721390467 M12.204299765382018,215.6387721390467 L24.369792846500047,208.73455481969376 M24.369792846500047,208.73455481969376 L0.38823276074361956,194.9353350189181 M25.377502937551355,378.26406084709095 L24.369792846500047,208.73455481969376" stroke="black"  stroke-width="4"  fill="red"/>
<path d="M254.68136828614206,78.73524414654281 L-11.59454720649154,229.85685738427097 M-11.59454720649154,229.85685738427097 L-23.571998533385624,222.95561922757105 M242.70330362009528,71.9010374872841 L-23.571998533385624,222.95561922757105 M254.68136828614206,78.73524414654281 L242.70330362009528,71.9010374872841 M254.6175350450739,50.78137978029423 L-11.777182575113216,201.83340979640008 M-11.59454720649154,229.85685738427097 L-11.777182575113216,201.83340979640008 M254.6175350450739,50.78137978029423 L254.68136828614206,78.73524414654281 M-23.759921916084636,194.9353350189181 L-23.571998533385624,222.95561922757105 M-11.777182575113216,201.83340979640008 L-23.759921916084636,194.9353350189181 M242.63418154757358,43.95033536808535 L-23.759921916084636,194.9353350189181 M242.70330362009528,71.9010374872841 L242.63418154757358,43.95033536808535 M254.6175350450739,50.78137978029423 L242.63418154757358,43.95033536808535" stroke="black"  stroke-width="4"  fill="red"/>
<path d="M823.6936847650263,403.39101040762984 L557.4185115882442,557.7141390245954 M557.4185115882442,557.7141390245954 L545.1867173176001,550.6663520587718 M811.4625219758307,396.41239603920474 L545.1867173176001,550.6663520587718 M823.6936847650263,403.39101040762984 L811.4625219758307,396.41239603920474 M823.6936847650263,403.39101040762984 L823.8838003930994,375.28846719750806 M823.8838003930994,375.28846719750806 L557.4898261364892,529.541981493307 M557.4898261364892,529.541981493307 L557.4185115882442,557.7141390245954 M545.2525165453801,522.4973588713295 L545.1867173176001,550.6663520587718 M557.4898261364892,529.541981493307 L545.2525165453801,522.4973588713295 M811.6471231332166,368.31301697503386 L545.2525165453801,522.4973588713295 M811.4625219758307,396.41239603920474 L811.6471231332166,368.31301697503386 M823.8838003930994,375.28846719750806 L811.6471231332166,368.31301697503386" stroke="black"  stroke-width="4"  fill="red"/>
<path d="M835.7348594492082,396.41239603920474 L254.74514504386454,65.06985447879799 M254.74514504386454,65.06985447879799 L242.70330362009528,71.9010374872841 M823.6936847650263,403.39101040762984 L242.70330362009528,71.9010374872841 M835.7348594492082,396.41239603920474 L823.6936847650263,403.39101040762984 M823.6936847650263,403.39101040762984 L823.8838003930994,375.28846719750806 M242.70330362009528,71.9010374872841 L242.63418154757358,43.95033536808535 M823.8838003930994,375.28846719750806 L242.63418154757358,43.95033536808535 M242.63418154757358,43.95033536808535 L254.68136828614206,37.12231454530297 M835.9303194982056,368.31301697503386 L254.68136828614206,37.12231454530297 M823.8838003930994,375.28846719750806 L835.9303194982056,368.31301697503386 M835.9303194982056,368.31301697503386 L835.7348594492082,396.41239603920474 M254.68136828614206,37.12231454530297 L254.74514504386454,65.06985447879799" stroke="black"  stroke-width="4"  fill="red"/>
<path d="M-23.571998533385624,222.95561922757105 L557.4185115882442,557.7141390245954 M-23.571998533385624,222.95561922757105 L-35.73733144972118,229.85685738427097 M545.2525165453801,564.7650946031947 L-35.73733144972118,229.85685738427097 M557.4185115882442,557.7141390245954 L545.2525165453801,564.7650946031947 M545.3183749650887,536.58977272998 L-35.930710075320576,201.83340979640008 M545.2525165453801,564.7650946031947 L545.3183749650887,536.58977272998 M-35.73733144972118,229.85685738427097 L-35.930710075320576,201.83340979640008 M-35.930710075320576,201.83340979640008 L-23.759921916084636,194.9353350189181 M557.4898261364892,529.541981493307 L-23.759921916084636,194.9353350189181 M545.3183749650887,536.58977272998 L557.4898261364892,529.541981493307 M557.4898261364892,529.541981493307 L557.4185115882442,557.7141390245954 M-23.759921916084636,194.9353350189181 L-23.571998533385624,222.95561922757105" stroke="black"  stroke-width="4"  fill="red"/>
<path d="M774.9699157924015,347.4053776975003 L508.57357613891634,501.3824813393212 M774.8018285928197,375.49526444603333 L508.52429319686604,529.541981493307 M774.9699157924015,347.4053776975003 L774.8018285928197,375.49526444603333 M508.57357613891634,501.3824813393212 L508.52429319686604,529.541981493307 M787.0165975543807,382.46452514931184 L520.7396118230556,536.5802754256747 M774.8018285928197,375.49526444603333 L787.0165975543807,382.46452514931184 M508.52429319686604,529.541981493307 L520.7396118230556,536.5802754256747 M787.1901845024529,354.3714743168566 L520.7943952527353,508.4176109278422 M787.0165975543807,382.46452514931184 L787.1901845024529,354.3714743168566 M520.7396118230556,536.5802754256747 L520.7943952527353,508.4176109278422 M787.1901845024529,354.3714743168566 L774.9699157924015,347.4053776975003 M520.7943952527353,508.4176109278422 L508.57357613891634,501.3824813393212" stroke="black"  stroke-width="4"  fill="red"/>
<path d="M278.60016852606066,64.4525474100003 L12.204299765382018,215.6387721390467 M278.65341002562997,92.41273645099102 L12.376344925094145,243.66854660877112 M278.60016852606066,64.4525474100003 L278.65341002562997,92.41273645099102 M12.204299765382018,215.6387721390467 L12.376344925094145,243.66854660877112 M290.64739414697596,99.25602611743432 L24.369792846500047,250.57900177712148 M278.65341002562997,92.41273645099102 L290.64739414697596,99.25602611743432 M12.376344925094145,243.66854660877112 L24.369792846500047,250.57900177712148 M290.5994555668136,71.29267465045325 L24.203049891103433,222.54606380653257 M290.64739414697596,99.25602611743432 L290.5994555668136,71.29267465045325 M24.369792846500047,250.57900177712148 L24.203049891103433,222.54606380653257 M290.5994555668136,71.29267465045325 L278.60016852606066,64.4525474100003 M24.203049891103433,222.54606380653257 L12.204299765382018,215.6387721390467" stroke="black"  stroke-width="4"  fill="red"/>
<path d="M798.3326280842823,573.2259477787721 L556.9166720768446,713.8367190696063 M556.9875358931217,685.8237360286031 L556.9166720768446,713.8367190696063 M798.5109115609926,545.2752274478885 L556.9875358931217,685.8237360286031 M798.3326280842823,573.2259477787721 L798.5109115609926,545.2752274478885 M810.5305064519791,580.2266867877573 L569.1151199773494,720.9003415947889 M569.1151199773494,720.9003415947889 L556.9166720768446,713.8367190696063 M810.5305064519791,580.2266867877573 L798.3326280842823,573.2259477787721 M569.191469069707,692.8842455958503 L569.1151199773494,720.9003415947889 M569.191469069707,692.8842455958503 L556.9875358931217,685.8237360286031 M810.7142744403841,552.2728532210386 L798.5109115609926,545.2752274478885 M810.7142744403841,552.2728532210386 L569.191469069707,692.8842455958503 M810.5305064519791,580.2266867877573 L810.7142744403841,552.2728532210386" stroke="black"  stroke-width="4"  fill="red"/>
<path d="M231.10621178502046,247.6771941504835 L-10.309296034779095,385.3793482711394 M-10.490789097947243,357.5126837776603 L-10.309296034779095,385.3793482711394 M231.03213783403385,219.8727845316359 L-10.490789097947243,357.5126837776603 M231.10621178502046,247.6771941504835 L231.03213783403385,219.8727845316359 M243.05229741058497,254.53342153057008 L1.636236596842707,392.29651790290364 M1.636236596842707,392.29651790290364 L-10.309296034779095,385.3793482711394 M243.05229741058497,254.53342153057008 L231.10621178502046,247.6771941504835 M1.636236596842707,392.29651790290364 L1.4600034149202656,364.4267403897678 M1.4600034149202656,364.4267403897678 L-10.490789097947243,357.5126837776603 M242.98348407577134,226.72589947311312 L231.03213783403385,219.8727845316359 M242.98348407577134,226.72589947311312 L1.4600034149202656,364.4267403897678 M242.98348407577134,226.72589947311312 L243.05229741058497,254.53342153057008" stroke="black"  stroke-width="4"  fill="red"/>
<path d="M761.771617624529,552.2424550419248 L520.3541006306259,692.6648285674195 M520.4085380428171,664.6611845343103 L520.3541006306259,692.6648285674195 M761.9334767912135,524.3010744385588 L520.4085380428171,664.6611845343103 M761.771617624529,552.2424550419248 L761.9334767912135,524.3010744385588 M773.9531873071346,559.2338339929998 L532.5361660728747,699.7189646807163 M532.5361660728747,699.7189646807163 L520.3541006306259,692.6648285674195 M773.9531873071346,559.2338339929998 L761.771617624529,552.2424550419248 M532.5361660728747,699.7189646807163 L532.5960740540088,671.7122076235948 M532.5960740540088,671.7122076235948 L520.4085380428171,664.6611845343103 M774.1205163778657,531.2893401447257 L761.9334767912135,524.3010744385588 M774.1205163778657,531.2893401447257 L532.5960740540088,671.7122076235948 M774.1205163778657,531.2893401447257 L773.9531873071346,559.2338339929998" stroke="black"  stroke-width="4"  fill="red"/>
<path d="M266.9602995915619,268.2549621501682 L25.54320229452577,406.14006445803034 M25.377502937551355,378.26406084709095 L25.54320229452577,406.14006445803034 M266.90202145966333,240.44121510436705 L25.377502937551355,378.26406084709095 M266.9602995915619,268.2549621501682 L266.90202145966333,240.44121510436705 M278.9222231415586,275.12027940408785 L37.504642417057994,413.06644546750675 M37.504642417057994,413.06644546750675 L25.54320229452577,406.14006445803034 M278.9222231415586,275.12027940408785 L266.9602995915619,268.2549621501682 M37.504642417057994,413.06644546750675 L37.34421701316256,385.1873287802088 M37.34421701316256,385.1873287802088 L25.377502937551355,378.26406084709095 M278.86921960566923,247.30341981027698 L266.90202145966333,240.44121510436705 M278.86921960566923,247.30341981027698 L37.34421701316256,385.1873287802088 M278.86921960566923,247.30341981027698 L278.9222231415586,275.12027940408785" stroke="black"  stroke-width="4"  fill="red"/>
<path d="M380.76387192080693,122.6904017260594 L114.36426466552939,274.4489537756118 M380.77188829747405,150.67747317570496 L114.49108968570903,302.50561917706153 M380.76387192080693,122.6904017260594 L380.77188829747405,150.67747317570496 M114.36426466552939,274.4489537756118 L114.49108968570903,302.50561917706153 M392.8111502850955,157.54659658940557 L126.5300357235235,309.4422897169837 M380.77188829747405,150.67747317570496 L392.8111502850955,157.54659658940557 M114.49108968570903,302.50561917706153 L126.5300357235235,309.4422897169837 M392.80847697337816,129.5563622486119 L126.40855334600633,281.3824605135439 M392.8111502850955,157.54659658940557 L392.80847697337816,129.5563622486119 M126.5300357235235,309.4422897169837 L126.40855334600633,281.3824605135439 M392.80847697337816,129.5563622486119 L380.76387192080693,122.6904017260594 M126.40855334600633,281.3824605135439 L114.36426466552939,274.4489537756118" stroke="black"  stroke-width="4"  fill="red"/>
<path d="M671.317798356326,288.31906118576336 L404.9178762596706,441.71125353964396 M671.1962617758497,316.3820542223563 L404.91514874226533,469.8438569442551 M671.317798356326,288.31906118576336 L671.1962617758497,316.3820542223563 M404.9178762596706,441.71125353964396 L404.91514874226533,469.8438569442551 M683.364760136699,323.32491476364476 L417.08396672896214,476.85535786542033 M671.1962617758497,316.3820542223563 L683.364760136699,323.32491476364476 M404.91514874226533,469.8438569442551 L417.08396672896214,476.85535786542033 M683.4917549928509,295.2587578636387 L417.0921529508955,448.71959016353117 M683.364760136699,323.32491476364476 L683.4917549928509,295.2587578636387 M417.08396672896214,476.85535786542033 L417.0921529508955,448.71959016353117 M683.4917549928509,295.2587578636387 L671.317798356326,288.31906118576336 M417.0921529508955,448.71959016353117 L404.9178762596706,441.71125353964396" stroke="black"  stroke-width="4"  fill="red"/>
<path d="M513.2914601951315,381.7253106252016 L271.76171019006347,520.8081101592118 M513.2406700904567,409.6028707721254 L271.81834827112357,548.7479341396305 M513.2914601951315,381.7253106252016 L513.2406700904567,409.6028707721254 M271.76171019006347,520.8081101592118 L271.81834827112357,548.7479341396305 M525.3116673575105,416.53078879995337 L283.8893450084377,555.7377549062194 M513.2406700904567,409.6028707721254 L525.3116673575105,416.53078879995337 M271.81834827112357,548.7479341396305 L283.8893450084377,555.7377549062194 M525.367828712903,388.65011556800386 L283.83807817715183,527.7948176801958 M525.3116673575105,416.53078879995337 L525.367828712903,388.65011556800386 M283.8893450084377,555.7377549062194 L283.83807817715183,527.7948176801958 M525.367828712903,388.65011556800386 L513.2914601951315,381.7253106252016 M283.83807817715183,527.7948176801958 L271.76171019006347,520.8081101592118" stroke="black"  stroke-width="4"  fill="red"/>
<path d="M822.5447397906987,573.2259477787721 L243.12105000486085,240.8239927168866 M810.5305064519791,580.2266867877573 L231.10621178502046,247.6771941504835 M822.5447397906987,573.2259477787721 L810.5305064519791,580.2266867877573 M243.12105000486085,240.8239927168866 L231.10621178502046,247.6771941504835 M810.7142744403841,552.2728532210386 L231.03213783403385,219.8727845316359 M810.5305064519791,580.2266867877573 L810.7142744403841,552.2728532210386 M231.10621178502046,247.6771941504835 L231.03213783403385,219.8727845316359 M822.7338283266035,545.2752274478885 L243.05229741058488,213.02269549845886 M810.7142744403841,552.2728532210386 L822.7338283266035,545.2752274478885 M231.03213783403385,219.8727845316359 L243.05229741058488,213.02269549845886 M822.7338283266035,545.2752274478885 L822.5447397906987,573.2259477787721 M243.05229741058488,213.02269549845886 L243.12105000486085,240.8239927168866" stroke="black"  stroke-width="4"  fill="red"/>
<path d="M569.1151199773494,720.9003415947889 L-10.309296034779095,385.3793482711394 M556.9875358931217,727.9671305100312 L-22.43628148385835,392.29651790290364 M569.1151199773494,720.9003415947889 L556.9875358931217,727.9671305100312 M-10.309296034779095,385.3793482711394 L-22.43628148385835,392.29651790290364 M557.0584632697351,699.9479215771199 L-22.623195464685182,364.4267403897678 M556.9875358931217,727.9671305100312 L557.0584632697351,699.9479215771199 M-22.43628148385835,392.29651790290364 L-22.623195464685182,364.4267403897678 M569.191469069707,692.8842455958503 L-10.490789097947243,357.5126837776603 M557.0584632697351,699.9479215771199 L569.191469069707,692.8842455958503 M-22.623195464685182,364.4267403897678 L-10.490789097947243,357.5126837776603 M569.191469069707,692.8842455958503 L569.1151199773494,720.9003415947889 M-10.490789097947243,357.5126837776603 L-10.309296034779095,385.3793482711394" stroke="black"  stroke-width="4"  fill="red"/>
<path d="M254.68136828614206,37.12231454530297 L254.66940385814573,31.879396260504564 M-35.930710075320576,201.83340979640008 L-35.96698772906319,196.57623659476764 M254.68136828614206,37.12231454530297 L-35.930710075320576,201.83340979640008 M254.66940385814573,31.879396260504564 L-35.96698772906319,196.57623659476764 M545.3183749650887,536.58977272998 L545.3307300149947,531.3040779106293 M-35.930710075320576,201.83340979640008 L545.3183749650887,536.58977272998 M-35.96698772906319,196.57623659476764 L545.3307300149947,531.3040779106293 M835.9303194982056,368.31301697503386 L835.9669877290632,363.0415841488613 M545.3183749650887,536.58977272998 L835.9303194982056,368.31301697503386 M545.3307300149947,531.3040779106293 L835.9669877290632,363.0415841488613 M835.9303194982056,368.31301697503386 L254.68136828614206,37.12231454530297 M835.9669877290632,363.0415841488613 L254.66940385814573,31.879396260504564" stroke="black"  stroke-width="4"  fill="red"/></svg>