<svg viewBox="0 0 800 800" xmlns="http://www.w3.org/2000/svg"><path d="M226.48826985630944,303.09555762859605 L37.17731619130012,411.477837612117 M37.14721011957397,404.65134477550134 L37.17731619130012,411.477837612117 M226.47394763758706,296.27819506910924 L37.14721011957397,404.65134477550134 M226.48826985630944,303.09555762859605 L226.47394763758706,296.27819506910924 M541.7935945388795,703.3377365357998 L510.1429641411388,721.7175729079629 M573.5717341906844,721.7175729079629 L541.7935945388795,703.3377365357998 M573.5717341906844,721.7175729079629 L762.8826520653256,611.6843291751687 M731.1051174124227,593.4026493019877 L762.8826520653256,611.6843291751687 M762.5586796444742,575.1372523768124 L731.1051174124227,593.4026493019877 M762.5586796444742,575.1372523768124 L289.2716686556274,303.09555762859605 M257.8174498280869,321.11929814809514 L289.2716686556274,303.09555762859605 M226.48826985630944,303.09555762859605 L257.8174498280869,321.11929814809514 M68.50590336350598,429.5976618782769 L37.17731619130012,411.477837612117 M36.855926357459396,447.73357477863544 L68.50590336350598,429.5976618782769 M36.855926357459396,447.73357477863544 L510.1429641411388,721.7175729079629 M68.50590336350598,429.5976618782769 L68.478390808668,422.7696472705858 M37.14721011957397,404.65134477550134 L68.478390808668,422.7696472705858 M68.478390808668,422.7696472705858 L36.82576679726873,440.9040383879151 M36.82576679726873,440.9040383879151 L510.15226662578164,714.8652095557825 M510.15226662578164,714.8652095557825 L541.8055441921883,696.4868949300387 M541.8055441921883,696.4868949300387 L573.5863523808374,714.8652095557825 M573.5863523808374,714.8652095557825 L762.9130540965441,604.841096493331 M762.9130540965441,604.841096493331 L731.1328510586555,586.5609384303729 M731.1328510586555,586.5609384303729 L762.5890275411831,568.2970633196211 M762.5890275411831,568.2970633196211 L289.2625545164405,296.27819506910924 M289.2625545164405,296.27819506910924 L257.8057212740417,314.30041392606176 M257.8057212740417,314.30041392606176 L226.47394763758706,296.27819506910924 M257.8174498280869,321.11929814809514 L257.8057212740417,314.30041392606176 M541.7935945388795,703.3377365357998 L541.8055441921883,696.4868949300387 M510.1429641411388,721.7175729079629 L510.15226662578164,714.8652095557825 M36.855926357459396,447.73357477863544 L36.82576679726873,440.9040383879151 M289.2716686556274,303.09555762859605 L289.2625545164405,296.27819506910924 M762.5890275411831,568.2970633196211 L762.5586796444742,575.1372523768124 M731.1051174124227,593.4026493019877 L731.1328510586555,586.5609384303729 M762.8826520653256,611.6843291751687 L762.9130540965441,604.841096493331 M573.5717341906844,721.7175729079629 L573.5863523808374,714.8652095557825" stroke="black"  stroke-width="4"  fill="red"/>
<path d="M242.2188295289382,294.0896660532295 L257.94243339361975,285.0877567425435 M242.2188295289382,294.0896660532295 L241.7663990052453,57.119151504447245 M257.53542621377704,48.14383769121349 L241.7663990052453,57.119151504447245 M257.53542621377704,48.14383769121349 L257.94243339361975,285.0877567425435 M289.2716686556274,303.09555762859605 L273.5480386908425,312.10543411173944 M289.2716686556274,303.09555762859605 L257.94243339361975,285.0877567425435 M273.5480386908425,312.10543411173944 L242.2188295289382,294.0896660532295 M273.5480386908425,312.10543411173944 L273.18577343408043,75.0817276294456 M241.7663990052453,57.119151504447245 L273.18577343408043,75.0817276294456 M273.18577343408043,75.0817276294456 L288.95482696914024,66.09844726702124 M288.95482696914024,66.09844726702124 L257.53542621377704,48.14383769121349 M289.2716686556274,303.09555762859605 L288.95482696914024,66.09844726702124" stroke="black"  stroke-width="4"  fill="red"/>
<path d="M242.28820344009006,330.4257896368674 L226.5646149134388,339.43573258089054 M241.7663990052453,57.119151504447245 L242.28820344009006,330.4257896368674 M241.7663990052453,57.119151504447245 L225.99037577754376,66.09844726702124 M226.5646149134388,339.43573258089054 L225.99037577754376,66.09844726702124 M226.5646149134388,339.43573258089054 L257.87996925596843,357.4675759247349 M225.99037577754376,66.09844726702124 L257.40972076296424,84.06899524458288 M257.87996925596843,357.4675759247349 L257.40972076296424,84.06899524458288 M257.87996925596843,357.4675759247349 L273.60358693403737,348.44966046208475 M257.40972076296424,84.06899524458288 L273.18577343408043,75.0817276294456 M273.60358693403737,348.44966046208475 L273.18577343408043,75.0817276294456 M273.60358693403737,348.44966046208475 L242.28820344009006,330.4257896368674 M273.18577343408043,75.0817276294456 L241.7663990052453,57.119151504447245" stroke="black"  stroke-width="4"  fill="red"/>
<path d="M541.7298968483304,739.8561841695156 L542.2090207740491,465.17021297303415 M542.2090207740491,465.17021297303415 L526.3412479556065,474.33147588120187 M525.9151694672148,749.0481007238587 L526.3412479556065,474.33147588120187 M541.7298968483304,739.8561841695156 L525.9151694672148,749.0481007238587 M525.9151694672148,749.0481007238587 L557.6791145279128,767.4442554365055 M526.3412479556065,474.33147588120187 L558.2121895042864,492.66632350373516 M557.6791145279128,767.4442554365055 L558.2121895042864,492.66632350373516 M557.6791145279128,767.4442554365055 L573.4938118687561,758.2441235621217 M558.2121895042864,492.66632350373516 L574.0799319785085,483.4968451376027 M573.4938118687561,758.2441235621217 L574.0799319785085,483.4968451376027 M573.4938118687561,758.2441235621217 L541.7298968483304,739.8561841695156 M574.0799319785085,483.4968451376027 L542.2090207740491,465.17021297303415" stroke="black"  stroke-width="4"  fill="red"/>
<path d="M510.1429641411388,721.7175729079629 L525.971814933217,712.5256015676842 M510.1429641411388,721.7175729079629 L510.46636273339044,483.4968451376027 M526.3412479556065,474.33147588120187 L510.46636273339044,483.4968451376027 M525.971814933217,712.5256015676842 L526.3412479556065,474.33147588120187 M541.9211608058005,740.1138455299559 L557.7499846655854,730.9136533100834 M557.7499846655854,730.9136533100834 L525.971814933217,712.5256015676842 M541.9211608058005,740.1138455299559 L510.1429641411388,721.7175729079629 M541.9211608058005,740.1138455299559 L542.3373314504793,501.83991374357436 M510.46636273339044,483.4968451376027 L542.3373314504793,501.83991374357436 M558.2121895042864,492.66632350373516 L526.3412479556065,474.33147588120187 M557.7499846655854,730.9136533100834 L558.2121895042864,492.66632350373516 M542.3373314504793,501.83991374357436 L558.2121895042864,492.66632350373516" stroke="black"  stroke-width="4"  fill="red"/>
<path d="M763.6137061786793,337.3421582548265 L762.5586796444742,575.1372523768124 M746.835401152305,584.2679168308338 L762.5586796444742,575.1372523768124 M746.835401152305,584.2679168308338 L747.8450071830783,346.44622086470685 M763.6137061786793,337.3421582548265 L747.8450071830783,346.44622086470685 M794.3360699568017,593.4026493019877 L762.5586796444742,575.1372523768124 M795.4838614881311,355.55435142034673 L763.6137061786793,337.3421582548265 M794.3360699568017,593.4026493019877 L795.4838614881311,355.55435142034673 M778.6128651797235,602.5414525095371 L794.3360699568017,593.4026493019877 M778.6128651797235,602.5414525095371 L746.835401152305,584.2679168308338 M778.6128651797235,602.5414525095371 L779.7152368517076,364.6665526488606 M747.8450071830783,346.44622086470685 L779.7152368517076,364.6665526488606 M779.7152368517076,364.6665526488606 L795.4838614881311,355.55435142034673" stroke="black"  stroke-width="4"  fill="red"/>
<path d="M746.6805958163309,620.7336930086663 L730.9572828540357,629.8724772079955 M747.8450071830783,346.44622086470685 L746.6805958163309,620.7336930086663 M747.8450071830783,346.44622086470685 L732.0692622987395,355.55435142034673 M730.9572828540357,629.8724772079955 L732.0692622987395,355.55435142034673 M730.9572828540357,629.8724772079955 L762.7205936846123,648.1622605109081 M732.0692622987395,355.55435142034673 L763.9395632100822,373.78282727980115 M762.7205936846123,648.1622605109081 L763.9395632100822,373.78282727980115 M762.7205936846123,648.1622605109081 L778.4438361157479,639.0153321352533 M763.9395632100822,373.78282727980115 L779.7152368517076,364.6665526488606 M778.4438361157479,639.0153321352533 L779.7152368517076,364.6665526488606 M778.4438361157479,639.0153321352533 L746.6805958163309,620.7336930086663 M779.7152368517076,364.6665526488606 L747.8450071830783,346.44622086470685" stroke="black"  stroke-width="4"  fill="red"/>
<path d="M37.337797370800445,447.8666309504589 L21.523442312682278,456.9285850030376 M36.130708338826594,174.16155561251878 L37.337797370800445,447.8666309504589 M36.130708338826594,174.16155561251878 L20.263311586625264,183.19285877198297 M21.523442312682278,456.9285850030376 L20.263311586625264,183.19285877198297 M21.523442312682278,456.9285850030376 L52.838135000653665,475.06455427153026 M20.263311586625264,183.19285877198297 L51.68198827835084,201.26752558923266 M52.838135000653665,475.06455427153026 L51.68198827835084,201.26752558923266 M51.68198827835084,201.26752558923266 L67.549455372522,192.2281812029914 M68.65255970113782,465.9945585517585 L67.549455372522,192.2281812029914 M52.838135000653665,475.06455427153026 L68.65255970113782,465.9945585517585 M68.65255970113782,465.9945585517585 L37.337797370800445,447.8666309504589 M67.549455372522,192.2281812029914 L36.130708338826594,174.16155561251878" stroke="black"  stroke-width="4"  fill="red"/>
<path d="M5.527481803329238,429.5976618782769 L21.355909404855424,420.5357400042624 M5.527481803329238,429.5976618782769 L4.38885324263407,192.2281812029914 M20.263311586625264,183.19285877198297 L4.38885324263407,192.2281812029914 M20.263311586625264,183.19285877198297 L21.355909404855424,420.5357400042624 M52.68442684195253,438.66360591024716 L36.855926357459396,447.73357477863544 M52.68442684195253,438.66360591024716 L21.355909404855424,420.5357400042624 M36.855926357459396,447.73357477863544 L5.527481803329238,429.5976618782769 M36.855926357459396,447.73357477863544 L35.80745641699616,210.31089461678573 M4.38885324263407,192.2281812029914 L35.80745641699616,210.31089461678573 M51.68198827835084,201.26752558923266 L20.263311586625264,183.19285877198297 M52.68442684195253,438.66360591024716 L51.68198827835084,201.26752558923266 M35.80745641699616,210.31089461678573 L51.68198827835084,201.26752558923266" stroke="black"  stroke-width="4"  fill="red"/>
<path d="M257.66090888133635,66.73868367733718 L-27.00179743780086,228.83590941964582 M273.3532321220313,75.7101627001282 L-11.309963827358786,237.87937595036874 M257.66090888133635,66.73868367733718 L273.3532321220313,75.7101627001282 M-27.00179743780086,228.83590941964582 L-11.309963827358786,237.87937595036874 M273.2974620557788,39.17250317916057 L-11.492671408209674,201.26752558923266 M273.3532321220313,75.7101627001282 L273.2974620557788,39.17250317916057 M-11.309963827358786,237.87937595036874 L-11.492671408209674,201.26752558923266 M257.59819535843155,30.205145322476596 L-27.191447822309954,192.2281812029914 M273.2974620557788,39.17250317916057 L257.59819535843155,30.205145322476596 M-11.492671408209674,201.26752558923266 L-27.191447822309954,192.2281812029914 M257.59819535843155,30.205145322476596 L257.66090888133635,66.73868367733718 M-27.191447822309954,192.2281812029914 L-27.00179743780086,228.83590941964582" stroke="black"  stroke-width="4"  fill="red"/>
<path d="M811.0614262923572,383.12403063982526 L526.3982749143158,547.7696399612208 M826.9999826350697,392.2362839173641 L542.3373314504793,556.9555852047502 M811.0614262923572,383.12403063982526 L826.9999826350697,392.2362839173641 M526.3982749143158,547.7696399612208 L542.3373314504793,556.9555852047502 M827.191161082827,355.55435142034673 L542.4015731350446,520.1994409126739 M826.9999826350697,392.2362839173641 L827.191161082827,355.55435142034673 M542.3373314504793,556.9555852047502 L542.4015731350446,520.1994409126739 M811.245441842832,346.44622086470685 L526.4553530297497,511.017618623575 M827.191161082827,355.55435142034673 L811.245441842832,346.44622086470685 M542.4015731350446,520.1994409126739 L526.4553530297497,511.017618623575 M811.245441842832,346.44622086470685 L811.0614262923572,383.12403063982526 M526.4553530297497,511.017618623575 L526.3982749143158,547.7696399612208" stroke="black"  stroke-width="4"  fill="red"/>
<path d="M826.9999826350697,392.2362839173641 L257.66090888133635,66.73868367733718 M257.66090888133635,66.73868367733718 L241.90588601393054,75.7101627001282 M811.245441842832,401.3526078910288 L241.90588601393054,75.7101627001282 M826.9999826350697,392.2362839173641 L811.245441842832,401.3526078910288 M811.245441842832,401.3526078910288 L811.4296218764804,364.6665526488606 M241.90588601393054,75.7101627001282 L241.836173431115,39.17250317916057 M811.4296218764804,364.6665526488606 L241.836173431115,39.17250317916057 M241.836173431115,39.17250317916057 L257.59819535843155,30.205145322476596 M827.191161082827,355.55435142034673 L257.59819535843155,30.205145322476596 M811.4296218764804,364.6665526488606 L827.191161082827,355.55435142034673 M827.191161082827,355.55435142034673 L826.9999826350697,392.2362839173641 M257.59819535843155,30.205145322476596 L257.66090888133635,66.73868367733718" stroke="black"  stroke-width="4"  fill="red"/>
<path d="M-11.127418761589695,219.79646488871427 L558.2121895042864,547.7696399612208 M-11.127418761589695,219.79646488871427 L-27.00179743780086,228.83590941964582 M542.3373314504793,556.9555852047502 L-27.00179743780086,228.83590941964582 M558.2121895042864,547.7696399612208 L542.3373314504793,556.9555852047502 M542.4015731350446,520.1994409126739 L-27.191447822309954,192.2281812029914 M542.3373314504793,556.9555852047502 L542.4015731350446,520.1994409126739 M-27.00179743780086,228.83590941964582 L-27.191447822309954,192.2281812029914 M-27.191447822309954,192.2281812029914 L-11.309963827358786,183.19285877198297 M558.2835371485787,511.017618623575 L-11.309963827358786,183.19285877198297 M542.4015731350446,520.1994409126739 L558.2835371485787,511.017618623575 M558.2835371485787,511.017618623575 L558.2121895042864,547.7696399612208 M-11.309963827358786,183.19285877198297 L-11.127418761589695,219.79646488871427" stroke="black"  stroke-width="4"  fill="red"/>
<path d="M731.9205679504838,337.3421582548265 L542.1449516275111,446.8599951677711 M731.7720063650394,374.01584533249957 L542.080939839206,483.5831559632387 M731.9205679504838,337.3421582548265 L731.7720063650394,374.01584533249957 M542.1449516275111,446.8599951677711 L542.080939839206,483.5831559632387 M747.689301717292,383.12403063982526 L557.9985299032791,492.74033736062904 M731.7720063650394,374.01584533249957 L747.689301717292,383.12403063982526 M542.080939839206,483.5831559632387 L557.9985299032791,492.74033736062904 M747.8450071830783,346.44622086470685 L558.0696859674891,456.01305365407507 M747.689301717292,383.12403063982526 L747.8450071830783,346.44622086470685 M557.9985299032791,492.74033736062904 L558.0696859674891,456.01305365407507 M747.8450071830783,346.44622086470685 L731.9205679504838,337.3421582548265 M558.0696859674891,456.01305365407507 L542.1449516275111,446.8599951677711" stroke="black"  stroke-width="4"  fill="red"/>
<path d="M288.90591982773526,84.06899524458288 L279.0800107776975,78.45148558638192 M89.30400294957599,186.58063353113573 L279.0800107776975,78.45148558638192 M99.12975643746597,192.2281812029914 L89.30400294957599,186.58063353113573 M288.90591982773526,84.06899524458288 L99.12975643746597,192.2281812029914 M288.95482696914024,120.62726153428906 L288.90591982773526,84.06899524458288 M279.1332698559206,115.00717594725961 L288.95482696914024,120.62726153428906 M279.0800107776975,78.45148558638192 L279.1332698559206,115.00717594725961 M89.30400294957599,186.58063353113573 L89.44181235712267,223.18578543004273 M279.1332698559206,115.00717594725961 L89.44181235712267,223.18578543004273 M99.26321411545388,228.83590941964582 L99.12975643746597,192.2281812029914 M89.44181235712267,223.18578543004273 L99.26321411545388,228.83590941964582 M288.95482696914024,120.62726153428906 L99.26321411545388,228.83590941964582" stroke="black"  stroke-width="4"  fill="red"/>
<path d="M746.9903444609494,602.5414525095371 L557.6791145279128,712.5256015676842 M746.835401152305,639.0153321352533 L557.6083076954102,749.0481007238587 M746.9903444609494,602.5414525095371 L746.835401152305,639.0153321352533 M557.6791145279128,712.5256015676842 L557.6083076954102,749.0481007238587 M762.7205936846123,648.1622605109081 L573.4938118687561,758.2441235621217 M746.835401152305,639.0153321352533 L762.7205936846123,648.1622605109081 M557.6083076954102,749.0481007238587 L573.4938118687561,758.2441235621217 M762.8826520653256,611.6843291751687 L573.5717341906844,721.7175729079629 M762.7205936846123,648.1622605109081 L762.8826520653256,611.6843291751687 M573.4938118687561,758.2441235621217 L573.5717341906844,721.7175729079629 M762.8826520653256,611.6843291751687 L746.9903444609494,602.5414525095371 M573.5717341906844,721.7175729079629 L557.6791145279128,712.5256015676842" stroke="black"  stroke-width="4"  fill="red"/>
<path d="M226.48826985630944,303.09555762859605 L37.17731619130012,411.477837612117 M226.5646149134388,339.43573258089054 L37.337797370800445,447.8666309504589 M226.48826985630944,303.09555762859605 L226.5646149134388,339.43573258089054 M37.17731619130012,411.477837612117 L37.337797370800445,447.8666309504589 M242.21882952893822,348.44966046208475 L52.99170683282824,456.9285850030376 M226.5646149134388,339.43573258089054 L242.21882952893822,348.44966046208475 M37.337797370800445,447.8666309504589 L52.99170683282824,456.9285850030376 M242.14939422494467,312.10543411173944 L52.838135000653665,420.5357400042624 M242.21882952893822,348.44966046208475 L242.14939422494467,312.10543411173944 M52.99170683282824,456.9285850030376 L52.838135000653665,420.5357400042624 M242.14939422494467,312.10543411173944 L226.48826985630944,303.09555762859605 M52.838135000653665,420.5357400042624 L37.17731619130012,411.477837612117" stroke="black"  stroke-width="4"  fill="red"/>
<path d="M375.50210467450194,115.55586986867706 L122.35305038341858,260.12148499333284 M375.512601072273,152.1285617733828 L122.47638315212572,296.7601302990026 M375.50210467450194,115.55586986867706 L375.512601072273,152.1285617733828 M122.35305038341858,260.12148499333284 L122.47638315212572,296.7601302990026 M391.2641957158718,161.1379266469152 L138.2277525692905,305.83384757509793 M375.512601072273,152.1285617733828 L391.2641957158718,161.1379266469152 M122.47638315212572,296.7601302990026 L138.2277525692905,305.83384757509793 M391.26069536228357,124.5611130134173 L138.11141554377048,269.19107982806105 M391.2641957158718,161.1379266469152 L391.26069536228357,124.5611130134173 M138.2277525692905,305.83384757509793 L138.11141554377048,269.19107982806105 M391.26069536228357,124.5611130134173 L375.50210467450194,115.55586986867706 M138.11141554377048,269.19107982806105 L122.35305038341858,260.12148499333284" stroke="black"  stroke-width="4"  fill="red"/>
<path d="M660.2320249908997,278.26471952613383 L407.0827459594836,423.9952720272613 M660.1156360871055,314.91160974912117 L407.0791937262189,460.7081255963096 M660.2320249908997,278.26471952613383 L660.1156360871055,314.91160974912117 M407.0827459594836,423.9952720272613 L407.0791937262189,460.7081255963096 M675.9938903536224,323.9934195263876 L422.95767522752794,469.8550669257146 M660.1156360871055,314.91160974912117 L675.9938903536224,323.9934195263876 M407.0791937262189,460.7081255963096 L422.95767522752794,469.8550669257146 M676.1173881895985,287.3424067940507 L422.968336697555,433.1380904756568 M675.9938903536224,323.9934195263876 L676.1173881895985,287.3424067940507 M422.95767522752794,469.8550669257146 L422.968336697555,433.1380904756568 M676.1173881895985,287.3424067940507 L660.2320249908997,278.26471952613383 M422.968336697555,433.1380904756568 L407.0827459594836,423.9952720272613" stroke="black"  stroke-width="4"  fill="red"/>
<path d="M501.5166232582491,443.19808707239235 L280.65057075749115,570.5734448071189 M501.4711994061343,479.6010612821183 L280.70331006796044,607.0331433794724 M501.5166232582491,443.19808707239235 L501.4711994061343,479.6010612821183 M280.65057075749115,570.5734448071189 L280.70331006796044,607.0331433794724 M517.2402585597526,488.67709527911416 L296.4723689853656,616.1658265824905 M501.4711994061343,479.6010612821183 L517.2402585597526,488.67709527911416 M280.70331006796044,607.0331433794724 L296.4723689853656,616.1658265824905 M517.2926939652383,452.2700693641565 L296.4266412278468,579.7020762715408 M517.2402585597526,488.67709527911416 L517.2926939652383,452.2700693641565 M296.4723689853656,616.1658265824905 L296.4266412278468,579.7020762715408 M517.2926939652383,452.2700693641565 L501.5166232582491,443.19808707239235 M296.4266412278468,579.7020762715408 L280.65057075749115,570.5734448071189" stroke="black"  stroke-width="4"  fill="red"/>
<path d="M794.1600764349124,629.8724772079955 L258.00484231435377,321.41982898806816 M778.4438361157479,639.0153321352533 L242.28820344009006,330.4257896368674 M794.1600764349124,629.8724772079955 L778.4438361157479,639.0153321352533 M258.00484231435377,321.41982898806816 L242.28820344009006,330.4257896368674 M778.6128651797235,602.5414525095371 L242.2188295289382,294.0896660532295 M778.4438361157479,639.0153321352533 L778.6128651797235,602.5414525095371 M242.28820344009006,330.4257896368674 L242.2188295289382,294.0896660532295 M794.3360699568017,593.4026493019877 L257.94243339361975,285.0877567425435 M778.6128651797235,602.5414525095371 L794.3360699568017,593.4026493019877 M242.2188295289382,294.0896660532295 L257.94243339361975,285.0877567425435 M794.3360699568017,593.4026493019877 L794.1600764349124,629.8724772079955 M257.94243339361975,285.0877567425435 L258.00484231435377,321.41982898806816" stroke="black"  stroke-width="4"  fill="red"/>
<path d="M557.6791145279128,767.4442554365055 L21.523442312682278,456.9285850030376 M541.8573491659116,776.648499101671 L5.702072681462369,465.99455855175836 M557.6791145279128,767.4442554365055 L541.8573491659116,776.648499101671 M21.523442312682278,456.9285850030376 L5.702072681462369,465.99455855175836 M541.9211608058005,740.1138455299559 L5.527481803329238,429.5976618782769 M541.8573491659116,776.648499101671 L541.9211608058005,740.1138455299559 M5.702072681462369,465.99455855175836 L5.527481803329238,429.5976618782769 M557.7499846655854,730.9136533100834 L21.355909404855424,420.5357400042624 M541.9211608058005,740.1138455299559 L557.7499846655854,730.9136533100834 M5.527481803329238,429.5976618782769 L21.355909404855424,420.5357400042624 M557.7499846655854,730.9136533100834 L557.6791145279128,767.4442554365055 M21.355909404855424,420.5357400042624 L21.523442312682278,456.9285850030376" stroke="black"  stroke-width="4"  fill="red"/>
<path d="M257.59819535843155,30.205145322476596 L257.5864303828522,23.351500898328993 M-27.191447822309954,192.2281812029914 L-27.227026063516462,185.36060438324344 M257.59819535843155,30.205145322476596 L-27.191447822309954,192.2281812029914 M257.5864303828522,23.351500898328993 L-27.227026063516462,185.36060438324344 M827.191161082827,355.55435142034673 L827.2270260635164,348.6728393247604 M827.191161082827,355.55435142034673 L257.59819535843155,30.205145322476596 M827.2270260635164,348.6728393247604 L257.5864303828522,23.351500898328993 M542.4015731350446,520.1994409126739 L542.4136248685838,513.303991954036 M-27.191447822309954,192.2281812029914 L542.4015731350446,520.1994409126739 M-27.227026063516462,185.36060438324344 L542.4136248685838,513.303991954036 M542.4015731350446,520.1994409126739 L827.191161082827,355.55435142034673 M294.84906856282953,69.46671031519895 L41.70155944202537,213.7031961536012 M288.95482696914024,66.09844726702124 L294.84906856282953,69.46671031519895 M288.95482696914024,66.09844726702124 L35.80745641699616,210.31089461678573 M41.70155944202537,213.7031961536012 L35.80745641699616,210.31089461678573 M542.4136248685838,513.303991954036 L827.2270260635164,348.6728393247604 M294.84039141368163,62.60967987796499 L41.671714655737105,206.83378078905156 M288.9456601859463,59.241707068609514 L294.84039141368163,62.60967987796499 M288.9456601859463,59.241707068609514 L35.77712203132245,203.44176955200197 M41.671714655737105,206.83378078905156 L35.77712203132245,203.44176955200197 M294.84039141368163,62.60967987796499 L294.84906856282953,69.46671031519895 M41.70155944202537,213.7031961536012 L41.671714655737105,206.83378078905156 M288.9456601859463,59.241707068609514 L288.95482696914024,66.09844726702124 M35.80745641699616,210.31089461678573 L35.77712203132245,203.44176955200197" stroke="black"  stroke-width="4"  fill="red"/>
<path d="M295.0828070772261,254.1762364802177 L289.2017549247747,250.80019090965527 M42.50548918118534,398.7448060637248 L36.624574665910075,395.344720746882 M295.0828070772261,254.1762364802177 L42.50548918118534,398.7448060637248 M289.2017549247747,250.80019090965527 L36.624574665910075,395.344720746882 M41.63191385387785,197.67277567504465 L35.736668303746114,194.28115172877395 M42.50548918118534,398.7448060637248 L41.63191385387785,197.67277567504465 M36.624574665910075,395.344720746882 L35.736668303746114,194.28115172877395 M294.8288196352226,53.46519754231707 L288.93343543553794,50.09761194087588 M41.63191385387785,197.67277567504465 L294.8288196352226,53.46519754231707 M35.736668303746114,194.28115172877395 L288.93343543553794,50.09761194087588 M294.8288196352226,53.46519754231707 L295.0828070772261,254.1762364802177 M288.93343543553794,50.09761194087588 L289.2017549247747,250.80019090965527" stroke="black"  stroke-width="4"  fill="red"/></svg>