<svg viewBox="0 0 800 800" xmlns="http://www.w3.org/2000/svg"><path d="M225.75958704531755,302.6885960853833 L35.653599881685636,411.52604013403516 M35.62336737598906,404.6708786420768 L35.653599881685636,411.52604013403516 M225.745204678762,295.84260321422084 L35.62336737598906,404.6708786420768 M225.75958704531755,302.6885960853833 L225.745204678762,295.84260321422084 M542.3890733284902,704.611638849815 L510.60552240538345,723.0686634951984 M574.3006689956919,723.0686634951984 L542.3890733284902,704.611638849815 M574.3006689956919,723.0686634951984 L764.4066202186498,612.5733222818512 M732.495632091114,594.2148663551517 L764.4066202186498,612.5733222818512 M764.0812872377135,575.8727617586027 L732.495632091114,594.2148663551517 M764.0812872377135,575.8727617586027 L288.806652073327,302.6885960853833 M257.22033757378875,320.78802941190725 L288.806652073327,302.6885960853833 M225.75958704531755,302.6885960853833 L257.22033757378875,320.78802941190725 M67.11375512105417,429.7219607221557 L35.653599881685636,411.52604013403516 M35.330860333636224,447.93403751057645 L67.11375512105417,429.7219607221557 M35.330860333636224,447.93403751057645 L510.60552240538345,723.0686634951984 M67.11375512105417,429.7219607221557 L67.08612702402331,422.8652710682661 M35.62336737598906,404.6708786420768 L67.08612702402331,422.8652710682661 M288.7974996582462,295.84260321422084 L257.20855976430863,313.94050848779847 M257.20855976430863,313.94050848779847 L225.745204678762,295.84260321422084 M67.08612702402331,422.8652710682661 L35.30057411484404,441.0758196827518 M35.30057411484404,441.0758196827518 L510.6148639568989,716.1875228414184 M510.6148639568989,716.1875228414184 L542.4010731657663,697.7320263332066 M542.4010731657663,697.7320263332066 L574.315348576645,716.1875228414184 M574.315348576645,716.1875228414184 L764.4371499267556,605.7013506437323 M764.4371499267556,605.7013506437323 L732.5234822080388,587.3444229182754 M732.5234822080388,587.3444229182754 L764.1117625839652,569.003846527188 M764.1117625839652,569.003846527188 L288.7974996582462,295.84260321422084 M257.22033757378875,320.78802941190725 L257.20855976430863,313.94050848779847 M542.3890733284902,704.611638849815 L542.4010731657663,697.7320263332066 M510.60552240538345,723.0686634951984 L510.6148639568989,716.1875228414184 M35.330860333636224,447.93403751057645 L35.30057411484404,441.0758196827518 M288.806652073327,302.6885960853833 L288.7974996582462,295.84260321422084 M764.1117625839652,569.003846527188 L764.0812872377135,575.8727617586027 M732.495632091114,594.2148663551517 L732.5234822080388,587.3444229182754 M764.4066202186498,612.5733222818512 L764.4371499267556,605.7013506437323 M574.3006689956919,723.0686634951984 L574.315348576645,716.1875228414184" stroke="black"  stroke-width="4"  fill="red"/>
<path d="M241.55620904371088,293.6448832146888 L257.34584602242774,284.60516933266126 M241.55620904371088,293.6448832146888 L241.1018784851009,55.67918326535403 M256.9371295683149,46.666176571681945 L241.1018784851009,55.67918326535403 M256.9371295683149,46.666176571681945 L257.34584602242774,284.60516933266126 M288.806652073327,302.6885960853833 L273.0169888848963,311.73631059894103 M288.806652073327,302.6885960853833 L257.34584602242774,284.60516933266126 M273.0169888848963,311.73631059894103 L241.55620904371088,293.6448832146888 M241.1018784851009,55.67918326535403 L272.6532022528047,73.71719533034656 M273.0169888848963,311.73631059894103 L272.6532022528047,73.71719533034656 M272.6532022528047,73.71719533034656 L288.48847977310794,64.69618863102858 M288.48847977310794,64.69618863102858 L256.9371295683149,46.666176571681945 M288.48847977310794,64.69618863102858 L288.806652073327,302.6885960853833" stroke="black"  stroke-width="4"  fill="red"/>
<path d="M241.62587429871908,330.1336046005131 L225.8362527224465,339.18138585406075 M241.1018784851009,55.67918326535403 L241.62587429871908,330.1336046005131 M241.1018784851009,55.67918326535403 L225.25960200211628,64.69618863102858 M225.8362527224465,339.18138585406075 L225.25960200211628,64.69618863102858 M225.8362527224465,339.18138585406075 L257.2831195593223,357.288956033689 M225.25960200211628,64.69618863102858 L256.8108962027543,82.74220602731191 M257.2831195593223,357.288956033689 L256.8108962027543,82.74220602731191 M257.2831195593223,357.288956033689 L273.0727704094374,348.23316877998946 M256.8108962027543,82.74220602731191 L272.6532022528047,73.71719533034656 M273.0727704094374,348.23316877998946 L272.6532022528047,73.71719533034656 M273.0727704094374,348.23316877998946 L241.62587429871908,330.1336046005131 M272.6532022528047,73.71719533034656 L241.1018784851009,55.67918326535403" stroke="black"  stroke-width="4"  fill="red"/>
<path d="M542.3251081320375,741.2834499768967 L542.8062441947379,465.4439029070969 M542.8062441947379,465.4439029070969 L526.8718328078714,474.6436396106825 M526.4439649530182,750.5139690602314 L526.8718328078714,474.6436396106825 M542.3251081320375,741.2834499768967 L526.4439649530182,750.5139690602314 M526.4439649530182,750.5139690602314 L558.3413064172669,768.9873805768782 M526.8718328078714,474.6436396106825 L558.8766201043713,493.05548657091845 M558.3413064172669,768.9873805768782 L558.8766201043713,493.05548657091845 M558.3413064172669,768.9873805768782 L574.2224194298562,759.7486116723055 M558.8766201043713,493.05548657091845 L574.8110010195833,483.8474999075911 M574.2224194298562,759.7486116723055 L574.8110010195833,483.8474999075911 M574.2224194298562,759.7486116723055 L542.3251081320375,741.2834499768967 M574.8110010195833,483.8474999075911 L542.8062441947379,465.4439029070969" stroke="black"  stroke-width="4"  fill="red"/>
<path d="M510.60552240538345,723.0686634951984 L526.5008483082822,713.8380893958483 M510.60552240538345,723.0686634951984 L510.9302791478598,483.8474999075911 M526.8718328078714,474.6436396106825 L510.9302791478598,483.8474999075911 M526.5008483082822,713.8380893958483 L526.8718328078714,474.6436396106825 M542.517175324874,741.5421934163658 L558.4124741823741,732.3033639128763 M558.4124741823741,732.3033639128763 L526.5008483082822,713.8380893958483 M542.517175324874,741.5421934163658 L510.60552240538345,723.0686634951984 M542.517175324874,741.5421934163658 L542.9350937268657,502.26760237624717 M510.9302791478598,483.8474999075911 L542.9350937268657,502.26760237624717 M558.8766201043713,493.05548657091845 L526.8718328078714,474.6436396106825 M558.4124741823741,732.3033639128763 L558.8766201043713,493.05548657091845 M542.9350937268657,502.26760237624717 L558.8766201043713,493.05548657091845" stroke="black"  stroke-width="4"  fill="red"/>
<path d="M765.1407444792833,337.0790193176737 L764.0812872377135,575.8727617586027 M748.291976997949,585.0417715062538 L764.0812872377135,575.8727617586027 M748.291976997949,585.0417715062538 L749.3058229873689,346.2213155036271 M765.1407444792833,337.0790193176737 L749.3058229873689,346.2213155036271 M795.9921304184988,594.2148663551517 L764.0812872377135,575.8727617586027 M797.1447422346516,355.36769671915414 L765.1407444792833,337.0790193176737 M795.9921304184988,594.2148663551517 L797.1447422346516,355.36769671915414 M780.2028942034005,603.3920490359784 L795.9921304184988,594.2148663551517 M780.2028942034005,603.3920490359784 L748.291976997949,585.0417715062538 M780.2028942034005,603.3920490359784 L781.3098954141947,364.5181657028222 M749.3058229873689,346.2213155036271 L781.3098954141947,364.5181657028222 M781.3098954141947,364.5181657028222 L797.1447422346516,355.36769671915414" stroke="black"  stroke-width="4"  fill="red"/>
<path d="M749.3058229873689,346.2213155036271 L748.1365215388546,621.6606899775109 M749.3058229873689,346.2213155036271 L733.4638260166823,355.36769671915414 M732.3471766842031,630.8378535702905 L733.4638260166823,355.36769671915414 M748.1365215388546,621.6606899775109 L732.3471766842031,630.8378535702905 M732.3471766842031,630.8378535702905 L764.2438812548066,649.204446958023 M733.4638260166823,355.36769671915414 L765.4679699854137,373.672725195647 M764.2438812548066,649.204446958023 L765.4679699854137,373.672725195647 M764.2438812548066,649.204446958023 L780.0331552820949,640.0191049864966 M765.4679699854137,373.672725195647 L781.3098954141947,364.5181657028222 M780.0331552820949,640.0191049864966 L781.3098954141947,364.5181657028222 M780.0331552820949,640.0191049864966 L748.1365215388546,621.6606899775109 M781.3098954141947,364.5181657028222 L749.3058229873689,346.2213155036271" stroke="black"  stroke-width="4"  fill="red"/>
<path d="M35.81475502067508,448.0676524673605 L19.93398572826726,457.16766325619926 M34.6025966770863,173.21312064302114 L35.81475502067508,448.0676524673605 M34.6025966770863,173.21312064302114 L18.668562935795308,182.28235181673372 M19.93398572826726,457.16766325619926 L18.668562935795308,182.28235181673372 M19.93398572826726,457.16766325619926 L51.380188131889156,475.37979664947864 M18.668562935795308,182.28235181673372 L50.21918603616092,200.43292531195408 M51.380188131889156,475.37979664947864 L50.21918603616092,200.43292531195408 M51.380188131889156,475.37979664947864 L67.26102735913423,466.27171042152463 M50.21918603616092,200.43292531195408 L66.15329041483108,191.35561914139166 M67.26102735913423,466.27171042152463 L66.15329041483108,191.35561914139166 M67.26102735913423,466.27171042152463 L35.81475502067508,448.0676524673605 M66.15329041483108,191.35561914139166 L34.6025966770863,173.21312064302114" stroke="black"  stroke-width="4"  fill="red"/>
<path d="M3.8708483112847603,429.7219607221557 L19.765749246393227,420.62198224701865 M3.8708483112847603,429.7219607221557 L2.7274379467335166,191.35561914139166 M18.668562935795308,182.28235181673372 L2.7274379467335166,191.35561914139166 M18.668562935795308,182.28235181673372 L19.765749246393227,420.62198224701865 M51.22583445779219,438.82597824677123 L35.330860333636224,447.93403751057645 M51.22583445779219,438.82597824677123 L19.765749246393227,420.62198224701865 M35.330860333636224,447.93403751057645 L3.8708483112847603,429.7219607221557 M2.7274379467335166,191.35561914139166 L34.27798722099084,209.51427302578028 M35.330860333636224,447.93403751057645 L34.27798722099084,209.51427302578028 M50.21918603616092,200.43292531195408 L51.22583445779219,438.82597824677123 M50.21918603616092,200.43292531195408 L18.668562935795308,182.28235181673372 M34.27798722099084,209.51427302578028 L50.21918603616092,200.43292531195408" stroke="black"  stroke-width="4"  fill="red"/>
<path d="M257.0631392150176,65.3391137890547 L-28.795041443827984,228.11708579566556 M272.8213642031077,74.34826958763335 L-13.03730814225031,237.19853142213756 M257.0631392150176,65.3391137890547 L272.8213642031077,74.34826958763335 M-28.795041443827984,228.11708579566556 L-13.03730814225031,237.19853142213756 M272.76535992393707,37.65716589073156 L-13.220783024963225,200.43292531195408 M272.8213642031077,74.34826958763335 L272.76535992393707,37.65716589073156 M-13.03730814225031,237.19853142213756 L-13.220783024963225,200.43292531195408 M257.00016231933614,28.65214856557941 L-28.98548828731532,191.35561914139166 M272.76535992393707,37.65716589073156 L257.00016231933614,28.65214856557941 M-13.220783024963225,200.43292531195408 L-28.98548828731532,191.35561914139166 M257.00016231933614,28.65214856557941 L257.0631392150176,65.3391137890547 M-28.98548828731532,191.35561914139166 L-28.795041443827984,228.11708579566556" stroke="black"  stroke-width="4"  fill="red"/>
<path d="M812.7877268447926,383.05315803206895 L526.9290992579658,548.3902158527587 M828.7932190196207,392.20367928334804 L542.9350937268657,557.614738548061 M812.7877268447926,383.05315803206895 L828.7932190196207,392.20367928334804 M526.9290992579658,548.3902158527587 L542.9350937268657,557.614738548061 M828.9852003436363,355.36769671915414 L542.9996052019014,520.7042325276926 M828.7932190196207,392.20367928334804 L828.9852003436363,355.36769671915414 M542.9350937268657,557.614738548061 L542.9996052019014,520.7042325276926 M812.9725151901007,346.2213155036271 L526.9864170796234,511.4838501016501 M828.9852003436363,355.36769671915414 L812.9725151901007,346.2213155036271 M542.9996052019014,520.7042325276926 L526.9864170796234,511.4838501016501 M812.9725151901007,346.2213155036271 L812.7877268447926,383.05315803206895 M526.9864170796234,511.4838501016501 L526.9290992579658,548.3902158527587" stroke="black"  stroke-width="4"  fill="red"/>
<path d="M828.7932190196207,392.20367928334804 L257.0631392150176,65.3391137890547 M257.0631392150176,65.3391137890547 L241.24195128579868,74.34826958763335 M812.9725151901007,401.35828832611753 L241.24195128579868,74.34826958763335 M828.7932190196207,392.20367928334804 L812.9725151901007,401.35828832611753 M812.9725151901007,401.35828832611753 L813.1574687093489,364.5181657028222 M241.24195128579868,74.34826958763335 L241.17194593683544,37.65716589073156 M813.1574687093489,364.5181657028222 L241.17194593683544,37.65716589073156 M241.17194593683544,37.65716589073156 L257.00016231933614,28.65214856557941 M828.9852003436363,355.36769671915414 L257.00016231933614,28.65214856557941 M813.1574687093489,364.5181657028222 L828.9852003436363,355.36769671915414 M828.9852003436363,355.36769671915414 L828.7932190196207,392.20367928334804 M257.00016231933614,28.65214856557941 L257.0631392150176,65.3391137890547" stroke="black"  stroke-width="4"  fill="red"/>
<path d="M-12.853996457120445,219.0396790598437 L558.8766201043713,548.3902158527587 M-12.853996457120445,219.0396790598437 L-28.795041443827984,228.11708579566556 M542.9350937268657,557.614738548061 L-28.795041443827984,228.11708579566556 M558.8766201043713,548.3902158527587 L542.9350937268657,557.614738548061 M542.9996052019014,520.7042325276926 L-28.98548828731532,191.35561914139166 M542.9350937268657,557.614738548061 L542.9996052019014,520.7042325276926 M-28.795041443827984,228.11708579566556 L-28.98548828731532,191.35561914139166 M-28.98548828731532,191.35561914139166 L-13.03730814225031,182.28235181673372 M558.9482673814434,511.4838501016501 L-13.03730814225031,182.28235181673372 M542.9996052019014,520.7042325276926 L558.9482673814434,511.4838501016501 M558.9482673814434,511.4838501016501 L558.8766201043713,548.3902158527587 M-13.03730814225031,182.28235181673372 L-12.853996457120445,219.0396790598437" stroke="black"  stroke-width="4"  fill="red"/>
<path d="M748.4475710091458,603.3920490359784 L558.3413064172669,713.8380893958483 M748.291976997949,640.0191049864966 L558.270202223187,750.5139690602314 M748.4475710091458,603.3920490359784 L748.291976997949,640.0191049864966 M558.3413064172669,713.8380893958483 L558.270202223187,750.5139690602314 M764.2438812548066,649.204446958023 L574.2224194298562,759.7486116723055 M748.291976997949,640.0191049864966 L764.2438812548066,649.204446958023 M558.270202223187,750.5139690602314 L574.2224194298562,759.7486116723055 M764.4066202186498,612.5733222818512 L574.3006689956919,723.0686634951984 M764.2438812548066,649.204446958023 L764.4066202186498,612.5733222818512 M574.2224194298562,759.7486116723055 L574.3006689956919,723.0686634951984 M764.4066202186498,612.5733222818512 L748.4475710091458,603.3920490359784 M574.3006689956919,723.0686634951984 L558.3413064172669,713.8380893958483" stroke="black"  stroke-width="4"  fill="red"/>
<path d="M225.75958704531755,302.6885960853833 L35.653599881685636,411.52604013403516 M225.8362527224465,339.18138585406075 L35.81475502067508,448.0676524673605 M225.75958704531755,302.6885960853833 L225.8362527224465,339.18138585406075 M35.653599881685636,411.52604013403516 L35.81475502067508,448.0676524673605 M241.55620904371088,348.23316877998946 L51.53440490694027,457.16766325619926 M225.8362527224465,339.18138585406075 L241.55620904371088,348.23316877998946 M35.81475502067508,448.0676524673605 L51.53440490694027,457.16766325619926 M241.4864821380345,311.73631059894103 L51.38018813188904,420.62198224701865 M241.55620904371088,348.23316877998946 L241.4864821380345,311.73631059894103 M51.53440490694027,457.16766325619926 L51.38018813188904,420.62198224701865 M241.4864821380345,311.73631059894103 L225.75958704531755,302.6885960853833 M51.38018813188904,420.62198224701865 L35.653599881685636,411.52604013403516" stroke="black"  stroke-width="4"  fill="red"/>
<path d="M375.39922289691617,114.361313465242 L121.18703953480104,259.534048804275 M375.40976337553775,151.08759666847612 L121.31089025389986,296.32656238749684 M375.39922289691617,114.361313465242 L375.40976337553775,151.08759666847612 M121.18703953480104,259.534048804275 L121.31089025389986,296.32656238749684 M391.22750868372265,160.13479742385837 L137.1284093897861,305.4383858008857 M375.40976337553775,151.08759666847612 L391.22750868372265,160.13479742385837 M121.31089025389986,296.32656238749684 L137.1284093897861,305.4383858008857 M391.2239936299901,123.4043751821498 L137.0115837933164,268.6417324636219 M391.22750868372265,160.13479742385837 L391.2239936299901,123.4043751821498 M137.1284093897861,305.4383858008857 L137.0115837933164,268.6417324636219 M391.2239936299901,123.4043751821498 L375.39922289691617,114.361313465242 M137.0115837933164,268.6417324636219 L121.18703953480104,259.534048804275" stroke="black"  stroke-width="4"  fill="red"/>
<path d="M661.3248998260676,277.75347797319023 L407.1124907797966,424.096042979501 M661.2080221334547,314.5542710992245 L407.1089236285126,460.9630764723854 M661.3248998260676,277.75347797319023 L661.2080221334547,314.5542710992245 M407.1124907797966,424.096042979501 L407.1089236285126,460.9630764723854 M677.1529589864631,323.6742209991899 L423.05408867061215,470.1484314520628 M661.2080221334547,314.5542710992245 L677.1529589864631,323.6742209991899 M407.1089236285126,460.9630764723854 L423.05408867061215,470.1484314520628 M677.2769754660503,286.86928805084585 L423.06479491472993,433.27725776364764 M677.1529589864631,323.6742209991899 L677.2769754660503,286.86928805084585 M423.05408867061215,470.1484314520628 L423.06479491472993,433.27725776364764 M677.2769754660503,286.86928805084585 L661.3248998260676,277.75347797319023 M423.06479491472993,433.27725776364764 L407.1124907797966,424.096042979501" stroke="black"  stroke-width="4"  fill="red"/>
<path d="M501.942954194705,443.37950249307494 L280.14934886592977,571.289787945071 M501.8973395798087,479.93535525201287 L280.20230966130373,607.9026032872339 M501.942954194705,443.37950249307494 L501.8973395798087,479.93535525201287 M280.14934886592977,571.289787945071 L280.20230966130373,607.9026032872339 M517.7326227422664,489.04950511564255 L296.0375925865562,617.0736402618544 M501.8973395798087,479.93535525201287 L517.7326227422664,489.04950511564255 M280.20230966130373,607.9026032872339 L296.0375925865562,617.0736402618544 M517.7852783563724,452.4895836358629 L295.99167278996964,580.456756165345 M517.7326227422664,489.04950511564255 L517.7852783563724,452.4895836358629 M296.0375925865562,617.0736402618544 L295.99167278996964,580.456756165345 M517.7852783563724,452.4895836358629 L501.942954194705,443.37950249307494 M295.99167278996964,580.456756165345 L280.14934886592977,571.289787945071" stroke="black"  stroke-width="4"  fill="red"/>
<path d="M795.8153977912239,630.8378535702905 L257.40851703672604,321.0898223663039 M780.0331552820949,640.0191049864966 L241.62587429871908,330.1336046005131 M795.8153977912239,630.8378535702905 L780.0331552820949,640.0191049864966 M257.40851703672604,321.0898223663039 L241.62587429871908,330.1336046005131 M780.2028942034005,603.3920490359784 L241.55620904371088,293.6448832146888 M780.0331552820949,640.0191049864966 L780.2028942034005,603.3920490359784 M241.62587429871908,330.1336046005131 L241.55620904371088,293.6448832146888 M795.9921304184988,594.2148663551517 L257.34584602242774,284.60516933266126 M780.2028942034005,603.3920490359784 L795.9921304184988,594.2148663551517 M241.55620904371088,293.6448832146888 L257.34584602242774,284.60516933266126 M795.9921304184988,594.2148663551517 L795.8153977912239,630.8378535702905 M257.34584602242774,284.60516933266126 L257.40851703672604,321.0898223663039" stroke="black"  stroke-width="4"  fill="red"/>
<path d="M558.3413064172669,768.9873805768782 L19.93398572826726,457.16766325619926 M542.4530957005377,778.2302785401794 L4.046172404237154,466.2717104215244 M558.3413064172669,768.9873805768782 L542.4530957005377,778.2302785401794 M19.93398572826726,457.16766325619926 L4.046172404237154,466.2717104215244 M542.517175324874,741.5421934163658 L3.8708483112847603,429.7219607221557 M542.4530957005377,778.2302785401794 L542.517175324874,741.5421934163658 M4.046172404237154,466.2717104215244 L3.8708483112847603,429.7219607221557 M558.4124741823741,732.3033639128763 L19.765749246393227,420.62198224701865 M542.517175324874,741.5421934163658 L558.4124741823741,732.3033639128763 M3.8708483112847603,429.7219607221557 L19.765749246393227,420.62198224701865 M558.4124741823741,732.3033639128763 L558.3413064172669,768.9873805768782 M19.765749246393227,420.62198224701865 L19.93398572826726,457.16766325619926" stroke="black"  stroke-width="4"  fill="red"/>
<path d="M257.00016231933614,28.65214856557941 L256.9883479353653,21.76972145982063 M-28.98548828731532,191.35561914139166 L-29.021215943508253,184.4592011293071 M257.00016231933614,28.65214856557941 L-28.98548828731532,191.35561914139166 M256.9883479353653,21.76972145982063 L-29.021215943508253,184.4592011293071 M542.9996052019014,520.7042325276926 L543.0117075481055,513.7798253244099 M-28.98548828731532,191.35561914139166 L542.9996052019014,520.7042325276926 M-29.021215943508253,184.4592011293071 L543.0117075481055,513.7798253244099 M828.9852003436363,355.36769671915414 L829.0212159435082,348.45728490841 M542.9996052019014,520.7042325276926 L828.9852003436363,355.36769671915414 M543.0117075481055,513.7798253244099 L829.0212159435082,348.45728490841 M828.9852003436363,355.36769671915414 L257.00016231933614,28.65214856557941 M829.0212159435082,348.45728490841 L256.9883479353653,21.76972145982063" stroke="black"  stroke-width="4"  fill="red"/>
<path d="M294.69998876822575,299.23474056351654 L288.7974996582462,295.84260321422084 M41.20292523929453,444.492097933144 L35.30057411484404,441.0758196827518 M294.69998876822575,299.23474056351654 L41.20292523929453,444.492097933144 M288.7974996582462,295.84260321422084 L35.30057411484404,441.0758196827518 M40.246782307000785,224.41536873948945 L34.32874555112227,221.008335292401 M41.20292523929453,444.492097933144 L40.246782307000785,224.41536873948945 M35.30057411484404,441.0758196827518 L34.32874555112227,221.008335292401 M294.42199435237717,79.55243035254102 L288.5038185038878,76.16953644623254 M40.246782307000785,224.41536873948945 L294.42199435237717,79.55243035254102 M34.32874555112227,221.008335292401 L288.5038185038878,76.16953644623254 M294.42199435237717,79.55243035254102 L294.69998876822575,299.23474056351654 M288.5038185038878,76.16953644623254 L288.7974996582462,295.84260321422084" stroke="black"  stroke-width="4"  fill="red"/>
<path d="M684.4521846669688,523.2237994239233 L678.4848588426221,519.7944006690898 M430.95370806104575,670.0796806358353 L424.9862895392743,666.6257414043205 M684.4521846669688,523.2237994239233 L430.95370806104575,670.0796806358353 M678.4848588426221,519.7944006690898 L424.9862895392743,666.6257414043205 M431.03916203407715,449.3958417443075 L425.05570925368863,445.9511480742981 M430.95370806104575,670.0796806358353 L431.03916203407715,449.3958417443075 M424.9862895392743,666.6257414043205 L425.05570925368863,445.9511480742981 M685.2157984896091,302.93443394346843 L679.2324391538718,299.51428044443253 M431.03916203407715,449.3958417443075 L685.2157984896091,302.93443394346843 M425.05570925368863,445.9511480742981 L679.2324391538718,299.51428044443253 M685.2157984896091,302.93443394346843 L684.4521846669688,523.2237994239233 M679.2324391538718,299.51428044443253 L678.4848588426221,519.7944006690898" stroke="black"  stroke-width="4"  fill="red"/></svg>